<svg xmlns="http://www.w3.org/2000/svg" viewBox="0 0 64 64" fill="none">
  <defs>
    <linearGradient id="g" x1="0" y1="0" x2="1" y2="1">
      <stop offset="0%" stop-color="#00d68f"/>
      <stop offset="100%" stop-color="#00b4d8"/>
    </linearGradient>
  </defs>
  <circle cx="32" cy="32" r="30" fill="#0a0f1a" stroke="url(#g)" stroke-width="2"/>
  <path d="M32 12c-12 4-18 16-16 28 1 0 3-6 8-10s10-6 16-6c-2 6-6 12-12 16s-10 6-12 6c4 4 10 6 16 4 8-2 14-10 16-20C46 18 38 12 32 12z" fill="url(#g)" opacity="0.9"/>
  <path d="M32 14v28M32 22c-4 4-8 8-10 14M32 28c4 4 8 6 10 10" stroke="#0a0f1a" stroke-width="1.5" stroke-linecap="round" opacity="0.5"/>
</svg>
